# xmcd CD database file
#
# Track frame offsets:
#	150
#	22728
#	43949
#
# Disc length: 753 seconds
#
# Revision: 0
# Processed by: cddbd v1.5PL3 Copyright (c) Steve Scherf et al.
# Submitted via: CDex 1.50beta10
#
DISCID=1a02ef03
DTITLE=La' Mule - 欄
DYEAR=1900
DGENRE=Rock
TTITLE0=爛
TTITLE1=blind hold
TTITLE2=ソングフォウ
EXTD=
EXTT0=
EXTT1=
EXTT2=
PLAYORDER=
